<svg width="16" height="16" xmlns="http://www.w3.org/2000/svg">
 <!-- Created with Method Draw - http://github.com/duopixel/Method-Draw/ -->

 <g>
  <title>background</title>
  <rect fill="none" id="canvas_background" height="18" width="18" y="-1" x="-1"/>
  <g display="none" overflow="visible" y="0" x="0" height="100%" width="100%" id="canvasGrid">
   <rect fill="url(#gridpattern)" stroke-width="0" y="0" x="0" height="100%" width="100%"/>
  </g>
 </g>
 <g>
  <title>Layer 1</title>
  <ellipse ry="3.693327" id="svg_16" cy="1.846663" cx="22.031225" fill-opacity="null" stroke-opacity="null" stroke-width="1.5" stroke="#cccccc" fill="none"/>
  <line stroke-linecap="null" stroke-linejoin="null" id="svg_18" y2="5.965824" x2="26.906217" y1="5.965824" x1="26.843717" fill-opacity="null" stroke-opacity="null" stroke="#cccccc" fill="none"/>
  <path stroke="#cccccc" transform="rotate(-153 20.84468269348144,20.379579544067383) " id="svg_25" fill-opacity="null" stroke-opacity="null" stroke-width="null" fill="none"/>
  <path stroke="#cccccc" id="svg_31" d="m14.81249,3.979116l0,0c0,-0.678818 -0.698971,-1.229108 -1.561195,-1.229108l-0.709635,0l0,0l-3.406245,0l-6.386708,0c-0.414056,0 -0.811152,0.129495 -1.103933,0.359997c-0.29278,0.230503 -0.457263,0.543131 -0.457263,0.869111l0,3.07277l0,0l0,1.843661l0,0c0,0.678818 0.698971,1.229108 1.561196,1.229108l6.386708,0l4.449839,3.125335l-1.043594,-3.125335l0.709635,0c0.862224,0 1.561195,-0.55029 1.561195,-1.229108l0,0l0,-1.843661l0,0l0,-3.07277z" stroke-opacity="null" stroke-width="null" fill="#cccccc"/>
 </g>
</svg>