<svg width="26" height="26" viewBox="0 0 26 26" fill="none" xmlns="http://www.w3.org/2000/svg">
<path d="M8.11011 12.0983C7.74715 11.6996 7.20271 11.7359 6.94863 12.207L1.06858 23.9861C0.850796 24.4573 1.17745 25.0009 1.6856 25.0009H9.88866C10.1427 25.0009 10.3968 24.8559 10.5057 24.6022C12.2843 20.9417 11.1953 15.3964 8.11011 12.0983Z" stroke="#808080" stroke-width="1.5"/>
<path d="M12.4303 1.36292C9.12728 6.58194 9.34506 12.3446 11.5229 16.6938C13.7007 21.043 15.3703 24.3411 15.4792 24.5948C15.5881 24.8485 15.8422 24.9935 16.0962 24.9935H24.2994C24.8075 24.9935 25.1705 24.4499 24.9164 23.9787C24.9164 23.9787 13.8822 1.94281 13.5918 1.39916C13.374 0.891755 12.757 0.855512 12.4303 1.36292Z" stroke="#808080" stroke-width="1.5"/>
</svg>
