<svg width="58" height="58" viewBox="0 0 58 58" fill="none" xmlns="http://www.w3.org/2000/svg">
<path fill-rule="evenodd" clip-rule="evenodd" d="m21.14,3.69l-14.6,8.42c-2.04,1.17 -3.29,3.34 -3.29,5.69l0,22.42c0,2.34 1.26,4.52 3.29,5.69l3.46,2l15.96,9.21c1.99,1.15 4.45,1.17 6.46,0.06c0.04,-0.03 0.08,-0.05 0.12,-0.08c1.43,-0.82 2.48,-2.15 2.97,-3.68c0.21,-0.64 0.31,-1.3 0.31,-1.99l0,-8.68l-8.45,-4.88l-2.43,-1.4c-2.67,-1.54 -4.31,-4.38 -4.31,-7.46l0,-22.42c0,-0.9 0.14,-1.79 0.41,-2.63c0.03,-0.09 0.06,-0.18 0.1,-0.27z" fill="#3D3D3D" />
<path fill-rule="evenodd" clip-rule="evenodd" d="m32.54,0.88c-1.99,-1.15 -4.45,-1.17 -6.46,-0.06c-0.04,0.03 -0.08,0.05 -0.12,0.08c-1.44,0.83 -2.48,2.15 -2.98,3.68c-0.2,0.64 -0.3,1.31 -0.3,1.99l0,8.68l8.18,4.73l2.7,1.55c2.67,1.54 4.31,4.38 4.31,7.46l0,22.42c0,0.91 -0.14,1.79 -0.41,2.63c-0.03,0.09 -0.06,0.19 -0.1,0.28l14.6,-8.43c2.04,-1.17 3.29,-3.34 3.29,-5.69l0,-22.42c0,-2.34 -1.26,-4.52 -3.29,-5.69l-3.72,-2.15l-15.7,-9.06z" fill="#3D3D3D" />
</svg>