<svg width="22" height="24" viewBox="0 0 22 24" fill="none" xmlns="http://www.w3.org/2000/svg">
<path fill-rule="evenodd" clip-rule="evenodd" d="M9.45651 0.740021C10.4066 0.169992 11.5934 0.169993 12.5435 0.740021L20.0435 5.24002C20.9471 5.78219 21.5 6.75871 21.5 7.8125V16.1893C21.5 17.2431 20.9471 18.2196 20.0435 18.7618L12.5435 23.2618C11.5934 23.8318 10.4066 23.8318 9.45651 23.2618L1.95651 18.7618C1.05289 18.2196 0.5 17.2431 0.5 16.1893V7.8125C0.5 6.75871 1.0529 5.78219 1.95651 5.24002L9.45651 0.740021ZM11.3859 2.66938C11.1484 2.52687 10.8516 2.52687 10.6141 2.66938L3.11413 7.16938C2.88822 7.30492 2.75 7.54905 2.75 7.8125V16.1893C2.75 16.4527 2.88822 16.6969 3.11413 16.8324L4.76186 17.821C4.67217 17.3951 4.625 16.9535 4.625 16.5009C4.625 12.9801 7.47918 10.1259 11 10.1259C14.5208 10.1259 17.375 12.9801 17.375 16.5009C17.375 16.9535 17.3278 17.3951 17.2381 17.821L18.8859 16.8324C19.1118 16.6969 19.25 16.4527 19.25 16.1893V7.8125C19.25 7.54905 19.1118 7.30492 18.8859 7.16938L11.3859 2.66938ZM11 12.3759C8.72183 12.3759 6.875 14.2227 6.875 16.5009C6.875 18.7791 8.72183 20.6259 11 20.6259C13.2782 20.6259 15.125 18.7791 15.125 16.5009C15.125 14.2227 13.2782 12.3759 11 12.3759Z" fill="#3b3b3b"/>
</svg>
