<svg width="23" height="26" viewBox="0 0 23 26" fill="none" xmlns="http://www.w3.org/2000/svg">
<path d="M6.9375 13.0049C6.93751 14.6484 7.80117 16.171 9.2168 16.9961V16.9951L10.292 17.625L13.6562 19.5918V23.0547C13.6562 23.284 13.6213 23.5077 13.5557 23.7188C13.4127 24.1691 13.1294 24.5642 12.7461 24.8398L12.5762 24.9512C12.5607 24.9602 12.5462 24.9708 12.5312 24.9805C11.8739 25.3457 11.0733 25.3388 10.4219 24.958L3.36426 20.8291L1.83398 19.9336C1.16764 19.544 0.750098 18.8168 0.75 18.0303V7.97949C0.750086 7.18992 1.16258 6.46961 1.82715 6.08008L6.9375 3.15234V13.0049ZM10.4678 1.01855C11.1251 0.653185 11.9257 0.660314 12.5771 1.04102L19.5195 5.10352L21.166 6.06641C21.8324 6.45599 22.2499 7.18322 22.25 7.96973V18.0205C22.2499 18.8095 21.8375 19.5282 21.1738 19.918L16.0625 22.6484V12.9951C16.0625 11.3518 15.1999 9.83007 13.7842 9.00488H13.7852L12.5928 8.30762L9.34375 6.40723V2.94531C9.34375 2.71608 9.37781 2.49227 9.44336 2.28125C9.58609 1.83127 9.86938 1.43684 10.252 1.16113L10.4219 1.0498L10.4238 1.04883C10.4392 1.03984 10.4528 1.0282 10.4678 1.01855Z" stroke="#808080" stroke-width="1.5"/>
</svg>