<svg width="24" height="27" viewBox="0 0 24 27" fill="none" xmlns="http://www.w3.org/2000/svg">
<path d="M6.9375 13.1455C6.93751 14.789 7.80117 16.3116 9.2168 17.1367V17.1357L10.292 17.7656L13.6562 19.7324V23.1953C13.6562 23.4246 13.6213 23.6483 13.5557 23.8594C13.4127 24.3097 13.1294 24.7048 12.7461 24.9805L12.5762 25.0918C12.5607 25.1009 12.5462 25.1114 12.5312 25.1211C11.8739 25.4863 11.0733 25.4794 10.4219 25.0986L3.36426 20.9697L1.83398 20.0742C1.16764 19.6846 0.750098 18.9575 0.75 18.1709V8.12012C0.750086 7.33054 1.16258 6.61024 1.82715 6.2207L6.9375 3.29297V13.1455Z" stroke="#808080" stroke-width="1.5"/>
<path d="M16.4688 12.9951C16.4687 11.3516 15.6051 9.82902 14.1895 9.00391L14.1895 9.00488L13.1143 8.375L9.75 6.4082L9.75 2.94531C9.75 2.71599 9.78499 2.49234 9.85059 2.28125C9.99357 1.83089 10.2769 1.43583 10.6602 1.16016L10.8301 1.04883C10.8456 1.03977 10.86 1.02921 10.875 1.01953C11.5323 0.654315 12.333 0.66119 12.9844 1.04199L20.042 5.1709L21.5723 6.06641C22.2386 6.45598 22.6562 7.18316 22.6563 7.96973L22.6563 18.0205C22.6562 18.8101 22.2437 19.5304 21.5791 19.9199L16.4688 22.8477L16.4688 12.9951Z" stroke="#808080" stroke-width="1.5"/>
</svg>
