<?xml version="1.0" encoding="UTF-8" standalone="no"?>
<svg
   xmlns:dc="http://purl.org/dc/elements/1.1/"
   xmlns:cc="http://creativecommons.org/ns#"
   xmlns:rdf="http://www.w3.org/1999/02/22-rdf-syntax-ns#"
   xmlns:svg="http://www.w3.org/2000/svg"
   xmlns="http://www.w3.org/2000/svg"
   height="24"
   width="24"
   xml:space="preserve"
   viewBox="0 0 24 24"
   y="0px"
   x="0px"
   id="Layer_1"
   version="1.1"><metadata
   id="metadata144"><rdf:RDF><cc:Work
       rdf:about=""><dc:format>image/svg+xml</dc:format><dc:type
         rdf:resource="http://purl.org/dc/dcmitype/StillImage" /><dc:title></dc:title></cc:Work></rdf:RDF></metadata><defs
   id="defs142" />
<g
   style="fill:#424242;fill-opacity:1"
   transform="scale(0.046875)"
   id="g101">
	<g
   style="fill:#424242;fill-opacity:1"
   id="g99">
		<path
   style="fill:#424242;fill-opacity:1"
   id="path97"
   d="M 256,0 C 114.84,0 0,114.842 0,256 0,397.158 114.84,512 256,512 397.16,512 512,397.158 512,256 512,114.842 397.16,0 256,0 Z m 0,462.452 C 142.163,462.452 49.548,369.838 49.548,256 49.548,142.162 142.163,49.548 256,49.548 c 113.837,0 206.452,92.615 206.452,206.452 0,113.837 -92.615,206.452 -206.452,206.452 z" />
	</g>
</g>
<g
   style="fill:#424242;fill-opacity:1"
   transform="scale(0.046875)"
   id="g107">
	<g
   style="fill:#424242;fill-opacity:1"
   id="g105">
		<polygon
   style="fill:#424242;fill-opacity:1"
   id="polygon103"
   points="231.226,231.226 140.387,231.226 140.387,280.774 231.226,280.774 231.226,371.613 280.774,371.613 280.774,280.774 371.613,280.774 371.613,231.226 280.774,231.226 280.774,140.387 231.226,140.387 " />
	</g>
</g>
<g
   style="fill:#424242;fill-opacity:1"
   transform="matrix(0.046875,0,0,0.046875,-0.03543747,0.04397638)"
   id="g109">
</g>
<g
   style="fill:#424242;fill-opacity:1"
   transform="matrix(0.046875,0,0,0.046875,-0.03543747,0.04397638)"
   id="g111">
</g>
<g
   style="fill:#424242;fill-opacity:1"
   transform="matrix(0.046875,0,0,0.046875,-0.03543747,0.04397638)"
   id="g113">
</g>
<g
   style="fill:#424242;fill-opacity:1"
   transform="matrix(0.046875,0,0,0.046875,-0.03543747,0.04397638)"
   id="g115">
</g>
<g
   style="fill:#424242;fill-opacity:1"
   transform="matrix(0.046875,0,0,0.046875,-0.03543747,0.04397638)"
   id="g117">
</g>
<g
   style="fill:#424242;fill-opacity:1"
   transform="matrix(0.046875,0,0,0.046875,-0.03543747,0.04397638)"
   id="g119">
</g>
<g
   style="fill:#424242;fill-opacity:1"
   transform="matrix(0.046875,0,0,0.046875,-0.03543747,0.04397638)"
   id="g121">
</g>
<g
   style="fill:#424242;fill-opacity:1"
   transform="matrix(0.046875,0,0,0.046875,-0.03543747,0.04397638)"
   id="g123">
</g>
<g
   style="fill:#424242;fill-opacity:1"
   transform="matrix(0.046875,0,0,0.046875,-0.03543747,0.04397638)"
   id="g125">
</g>
<g
   style="fill:#424242;fill-opacity:1"
   transform="matrix(0.046875,0,0,0.046875,-0.03543747,0.04397638)"
   id="g127">
</g>
<g
   style="fill:#424242;fill-opacity:1"
   transform="matrix(0.046875,0,0,0.046875,-0.03543747,0.04397638)"
   id="g129">
</g>
<g
   style="fill:#424242;fill-opacity:1"
   transform="matrix(0.046875,0,0,0.046875,-0.03543747,0.04397638)"
   id="g131">
</g>
<g
   style="fill:#424242;fill-opacity:1"
   transform="matrix(0.046875,0,0,0.046875,-0.03543747,0.04397638)"
   id="g133">
</g>
<g
   style="fill:#424242;fill-opacity:1"
   transform="matrix(0.046875,0,0,0.046875,-0.03543747,0.04397638)"
   id="g135">
</g>
<g
   style="fill:#424242;fill-opacity:1"
   transform="matrix(0.046875,0,0,0.046875,-0.03543747,0.04397638)"
   id="g137">
</g>
<path
   id="path3911"
   d="M 11.189389,23.963498 C 7.904241,23.729904 4.8792371,22.176578 2.7718681,19.641137 0.46977761,16.871421 -0.46270371,13.188788 0.24405816,9.6580992 0.94341098,6.1644226 3.1655404,3.1604145 6.3172212,1.4480321 7.5782179,0.76290303 9.0571285,0.28639945 10.466853,0.11102476 c 0.749135,-0.09319501 1.790971,-0.12012805 2.468664,-0.0638187 2.611745,0.21700913 5.003759,1.22827974 6.95835,2.94177904 0.352756,0.3092449 1.012254,0.9809227 1.286546,1.3103059 1.427688,1.7144405 2.366204,3.7933098 2.676503,5.928618 0.150792,1.037666 0.164259,2.247 0.03643,3.271673 -0.42976,3.445001 -2.37417,6.565319 -5.297966,8.50198 -1.609636,1.06619 -3.437237,1.720371 -5.382892,1.926781 -0.43883,0.04655 -1.583141,0.06644 -2.023101,0.03515 z m 1.336691,-2.297502 c 0.58126,-0.01925 1.193981,-0.111533 1.875073,-0.282409 2.50027,-0.627282 4.702554,-2.30394 6.005806,-4.572382 C 21.615542,14.707543 21.98676,12.184962 21.43678,9.8131441 20.548097,5.9806553 17.410627,3.0543527 13.525588,2.4344159 12.94689,2.342073 12.704602,2.3248435 11.996221,2.3256602 11.244911,2.3265262 10.866667,2.358075 10.250092,2.4713023 8.1144506,2.8634898 6.1568033,3.9788109 4.712005,5.6264908 2.3248078,8.3489029 1.659667,12.167163 2.9839871,15.546228 c 0.1644313,0.419555 0.5485724,1.182065 0.7846796,1.557569 0.7447093,1.184385 1.6856474,2.160358 2.8205767,2.9256 1.2636477,0.852032 2.6354959,1.372033 4.1589536,1.57646 0.347486,0.04663 1.126459,0.0922 1.33232,0.07794 0.04636,-0.0032 0.246866,-0.01122 0.445563,-0.0178 z"
   style="stroke-width:0.02408453;fill:#424242;fill-opacity:1" /><path
   id="path3913"
   d="M 11.165304,23.962494 C 7.8212794,23.712357 4.7716373,22.117626 2.6759575,19.52321 0.10330844,16.338315 -0.66310748,12.098751 0.62915873,8.2009851 0.94476665,7.2490406 1.5254276,6.0786383 2.0809426,5.2747145 2.5541818,4.5898576 2.9405771,4.1277094 3.5412311,3.5281359 4.2171536,2.8534292 4.8274542,2.3601772 5.5722936,1.8866072 7.2442194,0.82359458 9.0614295,0.21684079 11.081008,0.04728585 c 0.402715,-0.03381014 1.451024,-0.03368978 1.854509,2.1291e-4 2.58056,0.21683061 4.93835,1.20107524 6.884522,2.87389984 0.690229,0.5932834 1.453636,1.4351869 1.981027,2.1847242 1.19565,1.6992766 1.900561,3.5891395 2.133565,5.7200762 0.0498,0.455494 0.04204,1.999665 -0.01236,2.456622 -0.176447,1.482248 -0.553863,2.765913 -1.184981,4.030348 -0.617651,1.237456 -1.306815,2.193592 -2.286114,3.171719 -0.952799,0.95166 -1.967922,1.677969 -3.180442,2.275571 -1.272265,0.627048 -2.613902,1.013363 -4.058243,1.168541 -0.421679,0.04531 -1.625895,0.06501 -2.047186,0.03349 z m 2.085018,-2.355556 c 3.154333,-0.432105 5.84074,-2.30551 7.325915,-5.108832 C 22.21726,13.400617 22.019619,9.5633227 20.068883,6.6475328 19.473244,5.7572247 18.677069,4.9098541 17.848762,4.2846553 16.436062,3.2183618 14.836472,2.5790105 13.05594,2.3689785 12.554556,2.3098352 11.439903,2.3100944 10.948544,2.3694687 9.7448416,2.5149201 8.7308785,2.8129886 7.7026995,3.3236291 6.7378744,3.8028053 5.9434509,4.3770655 5.1550082,5.1652636 4.2050367,6.11494 3.4958255,7.1843963 3.0061058,8.4057036 2.1074884,10.646758 2.0854298,13.192951 2.9451792,15.438387 c 0.9444392,2.466623 2.8801976,4.472484 5.2963623,5.488167 0.8396966,0.352983 1.8445885,0.613784 2.6949595,0.699426 0.145712,0.01468 0.302863,0.0309 0.349226,0.03604 0.04636,0.0052 0.425694,0.0061 0.842959,0.002 0.601901,-0.0058 0.833663,-0.01764 1.121636,-0.05709 z"
   style="stroke-width:0.02408453;fill:#424242;fill-opacity:1" /></svg>