<svg width="52" height="58" viewBox="0 0 52 58" fill="none" xmlns="http://www.w3.org/2000/svg">
<path fill-rule="evenodd" clip-rule="evenodd" d="M17.8855 3.68506L3.28863 12.1115C1.2503 13.2832 0 15.4486 0 17.801V40.2208C0 42.5639 1.25768 44.7388 3.28996 45.9111L6.75086 47.909L22.7086 57.121C24.7046 58.2722 27.1608 58.2927 29.173 57.1822C29.2095 57.1539 29.2482 57.1278 29.2893 57.1041C30.7232 56.277 31.7717 54.9506 32.2647 53.4185C32.4654 52.785 32.5714 52.1158 32.5714 51.4307V42.7462L24.1249 37.8724L21.691 36.468C19.0191 34.9315 17.3796 32.0906 17.3796 29.0109V6.59111C17.3796 5.68508 17.5228 4.79866 17.793 3.95969C17.8223 3.86756 17.8532 3.776 17.8855 3.68506Z" fill="#6A9A23"/>
<path fill-rule="evenodd" clip-rule="evenodd" d="M29.2915 0.879121C27.2955 -0.27227 24.8395 -0.292673 22.8271 0.817917C22.7907 0.846179 22.7473 0.874978 22.7062 0.898682C21.2739 1.72636 20.227 3.05224 19.7348 4.58379C19.5345 5.2166 19.4287 5.88509 19.4287 6.56941V15.2539L27.6136 19.9768L30.3099 21.5325C32.9822 23.069 34.6206 25.9092 34.6206 28.9892V51.409C34.6206 52.3163 34.477 53.2039 34.206 54.0439C34.177 54.1349 34.1465 54.2253 34.1146 54.3151L48.7115 45.8886C50.7498 44.7169 52.0001 42.5515 52.0001 40.1991V17.7793C52.0001 15.4362 50.7422 13.2612 48.7099 12.0889L44.9877 9.94016L29.2915 0.879121Z" fill="#6A9A23"/>
</svg>
